<svg width="50" height="50" viewBox="0 0 50 50" fill="none" xmlns="http://www.w3.org/2000/svg">
<path d="M24.5338 3.00084C27.4615 3.05512 29.796 5.47264 29.7478 8.40052L29.3841 30.5347C29.336 33.4626 26.9235 35.7921 23.9958 35.7378C21.068 35.6835 18.7336 33.266 18.7817 30.3381L19.1454 8.20395C19.1935 5.27607 21.606 2.94655 24.5338 3.00084Z" fill="#FFBAF3"/>
<path d="M24.5816 16.3382C27.5094 16.3925 29.8438 18.81 29.7957 21.7379L29.432 43.8721C29.3838 46.8 26.9714 49.1295 24.0436 49.0752C21.1159 49.0209 18.7814 46.6034 18.8295 43.6755L19.1933 21.5414C19.2414 18.6135 21.6538 16.284 24.5816 16.3382Z" fill="#FFBAF3"/>
<path d="M2.65075 13.259C4.11486 10.5654 7.4204 9.68108 10.0339 11.2838L27.2654 21.8509C29.8789 23.4536 30.8107 26.9364 29.3466 29.6299C27.8824 32.3235 24.5769 33.2078 21.9634 31.6051L4.73186 21.038C2.11838 19.4353 1.18664 15.9525 2.65075 13.259Z" fill="#FFBAF3"/>
<path d="M20.653 28.0583C19.1888 25.3647 20.1206 21.8819 22.7341 20.2792L39.9656 9.7121C42.5791 8.10941 45.8847 8.99374 47.3488 11.6873C48.8129 14.3809 47.8811 17.8637 45.2677 19.4664L28.0361 30.0335C25.4226 31.6362 22.1171 30.7518 20.653 28.0583Z" fill="#FFBAF3"/>
<path d="M2.65101 39.3215C1.1869 36.6279 2.11864 33.1451 4.73212 31.5424L21.9637 20.9753C24.5772 19.3726 27.8827 20.2569 29.3468 22.9505C30.8109 25.644 29.8792 29.1268 27.2657 30.7295L10.0341 41.2967C7.42065 42.8993 4.11512 42.015 2.65101 39.3215Z" fill="#FFBAF3"/>
<path d="M19.1732 22.9509C20.6373 20.2573 23.9429 19.373 26.5563 20.9757L43.7879 31.5428C46.4014 33.1455 47.3331 36.6283 45.869 39.3218C44.4049 42.0154 41.0994 42.8997 38.4859 41.297L21.2543 30.7299C18.6408 29.1272 17.7091 25.6444 19.1732 22.9509Z" fill="#FFBAF3"/>
<g clip-path="url(#clip0_2302_3039)">
<path d="M25.3551 26.7481C46.6456 21.038 40.6228 10.6095 25.0412 26.2027C40.631 10.6095 30.1965 4.59375 24.4959 25.8887C30.2047 4.59375 18.1592 4.59375 23.8597 25.8887C18.1509 4.58549 7.72459 10.6095 23.3062 26.1945C7.72459 10.6095 1.7018 21.038 22.9923 26.7481C1.7018 21.038 1.7018 33.0862 22.9923 27.3844C1.7018 33.0944 7.72459 43.5229 23.3062 27.9297C7.71632 43.5229 18.1509 49.5387 23.8515 28.2438C18.1426 49.5387 30.1882 49.5387 24.4876 28.2438C30.1965 49.5387 40.6228 43.5147 25.0329 27.9297C40.6228 43.5229 46.6373 33.0862 25.3468 27.3844C46.6456 33.0862 46.6456 21.038 25.3551 26.7481Z" fill="#2BD886"/>
</g>
<defs>
<clipPath id="clip0_2302_3039">
<rect width="34.2975" height="34.2975" fill="white" transform="translate(7.02441 9.91748)"/>
</clipPath>
</defs>
</svg>
